<svg xmlns="http://www.w3.org/2000/svg" xmlns:xlink="http://www.w3.org/1999/xlink" id="Calque_1" x="0" y="0" version="1.1" viewBox="0 0 35.4 62.8" style="enable-background:new 0 0 35.4 62.8" xml:space="preserve"><style type="text/css">.st0{fill:#3e3e3f}.st1{fill:#f9f9f9}.st2{fill:#fff}</style><path id="XMLID_24_" d="M29,62.8H6.4c-3.5,0-6.4-2.9-6.4-6.4v-50C0,2.9,2.9,0,6.4,0H29c3.5,0,6.4,2.9,6.4,6.4v50	C35.4,59.9,32.5,62.8,29,62.8z" class="st0"/><path id="XMLID_25_" d="M29.4,52.1H5.9c-1.5,0-2.7-1.2-2.7-2.7V6.1c0-1.5,1.2-2.7,2.7-2.7h23.5c1.5,0,2.7,1.2,2.7,2.7	v43.3C32.2,50.9,30.9,52.1,29.4,52.1z" class="st1"/><circle id="XMLID_26_" cx="17.7" cy="57.4" r="2.9" class="st2"/></svg>