<svg xmlns="http://www.w3.org/2000/svg" xmlns:svg="http://www.w3.org/2000/svg" id="Calque_1" width="24" height="24" x="0" y="0" enable-background="new -1.989 -1.989 24 24" version="1.1" viewBox="0 0 24 24" xml:space="preserve"><metadata id="metadata15"/><g transform="translate(2,2)" style="stroke:#000;stroke-opacity:1" id="g5"><path id="line7" d="M 6.7597656,5.7578125 A 1.0001,1.0001 0 0 0 6.0625,7.4746094 L 8.5976562,10.011719 6.0625,12.546875 a 1.0001,1.0001 0 1 0 1.4140625,1.414063 l 2.5351565,-2.535157 2.535156,2.53711 a 1.0001,1.0001 0 1 0 1.414063,-1.414063 l -2.535157,-2.537109 2.53711,-2.5371096 A 1.0001,1.0001 0 0 0 13.234375,5.7578125 1.0001,1.0001 0 0 0 12.548828,6.0605469 L 10.011719,8.5976562 7.4765625,6.0605469 A 1.0001,1.0001 0 0 0 6.7597656,5.7578125 Z" style="color:#000;font-style:normal;font-variant:normal;font-weight:400;font-stretch:normal;font-size:medium;line-height:normal;font-family:sans-serif;text-indent:0;text-align:start;text-decoration:none;text-decoration-line:none;text-decoration-style:solid;text-decoration-color:#000;letter-spacing:normal;word-spacing:normal;text-transform:none;direction:ltr;block-progression:tb;writing-mode:lr-tb;baseline-shift:baseline;text-anchor:start;white-space:normal;clip-rule:nonzero;display:inline;overflow:visible;visibility:visible;opacity:1;isolation:auto;mix-blend-mode:normal;color-interpolation:sRGB;color-interpolation-filters:linearRGB;solid-color:#000;solid-opacity:1;fill:#000;fill-opacity:1;fill-rule:nonzero;stroke:none;stroke-width:2;stroke-linecap:round;stroke-linejoin:miter;stroke-miterlimit:10;stroke-dasharray:none;stroke-dashoffset:0;stroke-opacity:1;color-rendering:auto;image-rendering:auto;shape-rendering:auto;text-rendering:auto;enable-background:accumulate"/></g></svg>